<svg width="51" height="50" viewBox="0 0 51 50" fill="none" xmlns="http://www.w3.org/2000/svg">
<path fill-rule="evenodd" clip-rule="evenodd" d="M26.018 0.0198293C39.8046 0.564481 50.615 12.2315 50.0814 25.9903C49.5477 39.749 37.8689 50.5249 24.0814 49.9802C10.2948 49.4347 -0.514748 37.7677 0.0189427 24.0098C0.551791 10.251 12.2314 -0.525665 26.018 0.0198293Z" fill="white"/>
<path fill-rule="evenodd" clip-rule="evenodd" d="M19.8211 27.2499C20.0538 27.2828 20.2983 27.3384 20.5319 27.3721C20.5319 27.6074 20.5504 28.2279 20.854 28.2928C21.2047 28.3687 21.176 27.8578 21.176 27.5947C21.176 27.1403 21.176 26.685 21.176 26.1977C21.176 25.7652 21.176 25.2888 21.1769 24.8344C21.4441 24.6902 21.6987 24.5679 21.9542 24.4465C21.9542 24.9785 21.9534 25.5443 21.9542 26.0982C21.9542 26.6631 21.9534 27.1732 21.9534 27.7498C21.9534 28.4859 21.9357 29.8408 20.8531 29.1022C20.3009 28.7245 19.8195 28.0323 19.8203 27.3392C19.8203 27.3392 19.8203 27.3173 19.8203 27.2946L19.8211 27.2499ZM22.5208 24.1464C22.7763 23.9912 23.0317 23.8799 23.2872 23.7805C23.2872 24.4904 23.2872 25.1994 23.2863 25.8975C23.2863 26.6184 23.2863 27.3274 23.2863 28.0373C23.2863 28.4311 23.3091 29.3804 23.7973 29.5229C24.3461 29.6831 24.3082 28.4943 24.3082 28.2144C24.3082 27.416 24.309 26.5737 24.309 25.7205C24.309 24.9448 24.3099 24.0916 24.3099 23.2594C24.5763 23.1262 24.8427 23.0377 25.099 22.8935C25.0982 23.7695 25.0982 24.6337 25.0982 25.5097C25.0973 26.3629 25.0973 27.206 25.0973 28.0702C25.0973 28.8897 25.2103 31.7344 23.7964 31.0852C23.648 31.0169 23.3698 30.7454 23.2526 30.5751C22.6447 29.6966 22.5199 28.7422 22.5208 27.6816C22.5208 27.0939 22.5208 26.5062 22.5208 25.9076C22.5208 25.3217 22.5208 24.734 22.5208 24.1464ZM26.3966 32.1627L25.3326 22.8168L26.1656 22.4846L26.7642 29.3804L26.8089 28.6933L27.3771 22.0748L28.1992 21.8093L27.1301 32.4401L26.3966 32.1627ZM28.4513 32.8498C28.4513 31.919 28.4513 30.9874 28.4521 30.0676C28.4521 29.1587 28.4529 28.2161 28.4529 27.2853C28.4529 26.3764 28.4538 25.4228 28.4538 24.514C28.4538 23.6051 28.4538 22.6625 28.4546 21.7207C29.2438 21.5209 30.0321 21.311 30.7985 21.123C30.7985 21.9762 30.7985 22.8084 30.7976 23.6177C30.2757 23.7172 29.753 23.7948 29.2421 23.8614C29.2421 24.5595 29.2421 25.2138 29.2412 25.879C29.7083 25.8571 30.1855 25.8124 30.6408 25.7576C30.6408 26.5779 30.64 27.4092 30.64 28.1849C30.1847 28.2405 29.7075 28.2178 29.2412 28.2178C29.2404 29.0381 29.2404 29.8585 29.2404 30.7007C29.7741 30.7901 30.3069 30.823 30.8406 30.8449C30.8406 31.7209 30.8398 32.5413 30.8398 33.3506C30.0616 33.2385 29.2505 33.0943 28.4513 32.8498ZM31.2951 33.4274L31.2976 24.1379L31.2984 21.0336L32.1534 20.8683L33.2401 28.9833L33.2089 20.6904L33.9753 20.5134L33.9728 30.2581L33.972 33.5058H33.0943L32.8059 31.366L32.5066 29.2371L31.9965 25.5679C32.0244 28.2018 32.0404 30.8272 32.0387 33.4611L31.2951 33.4274ZM35.2054 33.3953C35.2063 29.9546 35.2071 26.5147 35.208 23.0739L34.3193 23.1296L34.3202 20.5244L36.8866 20.3473L36.8858 22.9635L35.9862 23.0082C35.9853 26.4371 35.9845 29.8661 35.9828 33.2958L35.2054 33.3953ZM37.2078 20.4029C37.4633 20.4029 37.7306 20.4367 37.9742 20.4586C37.9742 21.101 37.9742 21.7663 37.9734 22.3876C37.9734 23.0419 37.9725 23.6734 37.9734 24.3605C37.9734 24.9591 37.9725 25.6024 37.9734 26.2449C37.9725 26.8882 37.9725 27.5197 37.9725 28.1739C37.9725 28.4926 37.9211 30.3357 38.4835 30.3357C38.9919 30.3357 38.9952 28.2473 38.9952 27.9632C38.9952 27.3426 38.9952 26.744 38.9961 26.1235C38.9961 25.4911 38.9969 24.8925 38.9961 24.272C38.9961 23.6515 38.9969 23.0638 38.9961 22.4652C38.9969 21.8219 38.9969 21.2014 38.9969 20.6028C39.2524 20.6365 39.5298 20.7141 39.7743 20.7259C39.7743 21.8674 39.7743 22.9871 39.7734 24.1067C39.7734 25.1817 39.7734 26.3014 39.7726 27.432C39.7717 28.6553 39.7498 32.4721 38.4826 32.8642C38.3275 32.8971 38.0602 32.8971 37.9388 32.7976C37.169 32.1003 37.2061 28.9504 37.207 27.8864C37.207 27.2541 37.2078 26.6445 37.207 26.0012C37.207 25.3807 37.2078 24.7602 37.2078 24.1497C37.2078 23.5292 37.2078 22.8859 37.2078 22.2873C37.2078 21.6558 37.2087 21.0235 37.2078 20.4029ZM41.1603 29.0516C41.3155 28.996 41.5161 28.9184 41.6047 28.8855C42.2471 28.6857 42.3053 26.5518 42.3053 26.0366C42.3053 25.6362 42.2749 23.5317 41.6021 23.3496L41.1612 23.2645C41.1612 24.2619 41.1612 25.2154 41.1603 26.169C41.1612 27.1335 41.1612 28.098 41.1603 29.0516ZM40.3822 31.6012C40.3822 30.7142 40.3822 29.8273 40.383 28.9403C40.3838 28.0424 40.3838 27.1554 40.3838 26.3014C40.3838 25.4144 40.3838 24.5055 40.3847 23.6186C40.3847 22.7097 40.3847 21.8118 40.3855 20.9358C40.8079 21.058 41.3079 21.2461 41.6856 21.3793C42.8584 21.7587 43.1181 24.8318 43.1172 25.8807C43.1164 27.2347 42.8322 30.0751 41.5827 30.8466C41.2379 31.0582 40.7826 31.3904 40.3822 31.6012ZM43.5708 29.3509C43.5708 28.7523 43.5708 28.1765 43.5708 27.5551C43.5708 26.9674 43.5708 26.3688 43.5717 25.7921C43.5717 25.1935 43.5717 24.5839 43.5717 24.0073C43.5717 23.4314 43.5725 22.8328 43.5725 22.2333C44.3608 22.6549 45.15 23.0984 45.9273 23.6532C45.9273 23.8968 45.9265 24.1295 45.9273 24.3513C45.4054 24.2071 44.8827 24.0401 44.3608 23.896C44.3608 24.2509 44.3608 24.5612 44.3608 24.9271C44.827 24.9499 45.2941 24.9499 45.7713 24.9827C45.7713 25.2045 45.7713 25.4591 45.7713 25.7146C45.2933 25.836 44.827 25.9692 44.3608 26.1243C44.36 26.5349 44.36 26.9776 44.36 27.3991C44.9046 27.1108 45.4375 26.7339 46.0597 26.3798C46.0597 26.6344 46.0597 26.8671 46.0597 27.1116C45.1828 27.8653 44.3827 28.609 43.5708 29.3509ZM16.6527 23.6734C22.5107 14.3873 29.0777 9.12208 38.2954 8.05555C39.6107 9.08162 40.8164 10.267 41.8846 11.5983C44.4198 14.7583 46.0167 18.6063 46.477 22.622C44.6281 20.7781 33.1769 14.5197 18.0573 25.8705C17.8457 24.9937 17.3424 24.2239 16.6527 23.6734ZM11.804 23.5629C10.2467 19.0548 9.66752 14.3688 9.72738 9.89438C11.7289 7.87512 14.1107 6.26477 16.7244 5.16704C18.0481 4.61143 19.4156 4.19324 20.8101 3.91417C15.5879 10.5883 15.4496 17.5861 15.2338 22.9475C14.9395 22.8648 14.6309 22.8159 14.3131 22.8033C13.3797 22.7654 12.5071 23.0529 11.804 23.5629ZM10.3218 25.6362C7.19129 23.6203 6.07501 21.7064 4.35759 18.9949C3.87532 20.6517 3.59288 22.3767 3.52459 24.1379C3.4074 27.1605 3.94783 30.167 5.06412 32.9443C6.16775 31.1712 8.19207 28.9825 10.2349 27.6217C10.1683 27.3072 10.1388 26.9792 10.1523 26.6437C10.1658 26.2929 10.224 25.9557 10.3218 25.6362ZM13.7069 30.7766C13.0003 36.6616 16.7783 41.9631 22.9179 46.3725C22.1136 46.2916 21.3185 46.166 20.5361 45.9974C16.2303 45.0573 12.3975 42.8357 9.45674 39.749C8.61531 36.8985 8.70131 32.9578 10.9575 29.2008C11.6016 30.0549 12.5813 30.6485 13.7069 30.7766ZM18.054 27.7524C27.7616 35.8277 37.6994 36.8184 46.3531 28.356C45.6845 32.5918 43.758 36.5149 40.802 39.663C39.5399 41.007 38.1133 42.1823 36.5637 43.1611C28.85 43.3871 21.0799 40.6132 15.1688 30.6738C16.5802 30.307 17.7041 29.184 18.054 27.7524ZM33.2629 8.11119L32.1896 8.5083L31.8541 7.59436L32.9391 7.19894L33.2629 8.11119ZM26.0324 11.5444L25.1176 12.2467L24.5333 11.4735L25.4396 10.7839L26.0324 11.5444ZM29.1704 7.35155L29.1612 7.32794C29.1047 7.21159 29.0119 7.13571 28.9015 7.12559C28.791 7.11547 28.598 7.15257 28.388 7.24447L27.5019 7.65169C27.1174 7.82706 26.8797 7.98304 26.8232 8.10023C26.7557 8.22754 26.781 8.43073 26.8915 8.68619L27.0955 9.12799C27.1984 9.33792 27.3206 9.46102 27.4859 9.48715C27.6393 9.51245 27.9024 9.44837 28.2523 9.29155L28.9048 8.99646C29.2665 8.82952 29.4933 8.67271 29.5684 8.57996C29.6561 8.4771 29.6485 8.32028 29.5852 8.16937L29.5658 8.13396L30.6965 7.61628L30.7057 7.63905C30.7538 7.72167 30.7909 7.80261 30.8094 7.83802C30.8912 8.03531 30.941 8.21827 30.9376 8.3734C30.9351 8.51757 30.8878 8.66933 30.8086 8.7958C30.7175 8.93154 30.5708 9.06222 30.3938 9.16846C30.2041 9.28396 29.92 9.45849 29.5363 9.62289L28.2995 10.1971C27.9268 10.3623 27.6275 10.4677 27.4319 10.5276C27.2363 10.5866 27.0449 10.6026 26.8805 10.5756C26.706 10.5368 26.5349 10.4542 26.4219 10.3539C26.2988 10.2426 26.1588 10.0731 26.0568 9.85222L25.6681 9.00321C25.4742 8.57322 25.4531 8.20393 25.6142 7.91812C25.7634 7.63146 26.1942 7.3271 26.8468 7.03201L28.0837 6.45784C28.4791 6.28332 28.8037 6.1577 28.9993 6.09868C29.1932 6.04978 29.3846 6.0346 29.5279 6.04809C29.6594 6.0717 29.7985 6.13999 29.9014 6.22767C30.0144 6.32716 30.1223 6.4823 30.2159 6.68043C30.2353 6.71584 30.2538 6.75041 30.2631 6.77401C30.2707 6.80774 30.28 6.83134 30.2901 6.84315L29.1704 7.35155ZM22.2704 10.8673L20.0876 13.1412L20.4568 13.4953L22.5191 11.3606L23.0418 11.8437L20.9829 13.9894L21.3421 14.3469L23.5696 12.0258L24.1657 12.6033L21.0968 15.8038L18.6425 13.4574L21.6751 10.2898L22.2704 10.8673ZM14.2718 23.8724C15.888 23.9364 17.1552 25.304 17.0928 26.9168C17.0304 28.5297 15.6612 29.7935 14.045 29.7295C12.4279 29.6654 11.1615 28.2979 11.2239 26.685C11.2863 25.0721 12.6555 23.8083 14.2718 23.8724ZM17.1974 39.7676L16.7471 39.0619L18.5826 37.9153L17.5017 37.4279L17.8061 36.7636L19.1146 37.4153L19.6483 38.2466L17.1974 39.7676ZM21.2274 40.8173L20.6626 40.206C20.5774 40.1141 20.4914 40.0441 20.4349 40.0416C20.3464 40.0382 20.268 40.0458 20.198 40.1208C20.1289 40.1849 20.0926 40.2608 20.101 40.3283C20.0994 40.3721 20.15 40.4859 20.2579 40.5787L20.8 41.1992C20.8969 41.2919 20.9711 41.3611 21.0378 41.3636C21.1153 41.3779 21.1819 41.3695 21.2629 41.2953C21.332 41.2312 21.3682 41.1444 21.3598 41.0887C21.364 41.023 21.3126 40.921 21.2274 40.8173ZM21.8514 41.9074L21.8404 41.9066C22.0706 41.7051 22.1911 41.4656 22.1785 41.2329C22.176 41.0213 22.0411 40.7616 21.7864 40.4733L20.9349 39.518C20.7325 39.2988 20.5479 39.1808 20.3599 39.1513C20.1946 39.1116 20.0142 39.1707 19.8532 39.3081L19.4156 39.69C19.2537 39.8502 19.1913 40.0247 19.2175 40.2035C19.2655 40.394 19.4232 40.6335 19.6888 40.9437L20.1154 41.4049C20.2326 41.5423 20.3616 41.6477 20.4375 41.6949C20.5243 41.754 20.6457 41.77 20.7342 41.7734L20.4931 41.9858C20.4004 42.071 20.2992 42.1114 20.2225 42.0862C20.1331 42.0828 20.0479 42.001 19.9409 41.8855L19.3869 41.286C19.3018 41.1823 19.2503 41.0803 19.2419 41.0137C19.2107 40.9572 19.2369 40.8695 19.306 40.8055L18.7731 40.2187C18.7386 40.2498 18.7158 40.2709 18.6922 40.2928C18.6812 40.2928 18.6694 40.3139 18.6576 40.3249C18.473 40.4952 18.3878 40.6807 18.4131 40.8805C18.4393 41.0702 18.5843 41.3198 18.8296 41.5853L19.3507 42.1831C19.7233 42.5861 20.0361 42.8323 20.2671 42.8972C20.4864 42.9731 20.757 42.8719 20.999 42.6493L21.8514 41.9074ZM23.0587 44.8431L22.3429 44.3929L23.4937 42.5642L22.3024 42.6047L22.2754 41.883L23.7543 41.8872L24.578 42.42L23.0587 44.8431ZM24.594 44.4511V44.462C24.5687 44.5278 24.5215 44.5919 24.5097 44.6256C24.4363 44.8111 24.4085 44.9544 24.4026 45.0978C24.3984 45.1981 24.4271 45.3212 24.4793 45.4114C24.5434 45.4805 24.6286 45.5615 24.7483 45.6331C24.8562 45.704 25.0307 45.7883 25.271 45.8869L26.4092 46.3439C26.7043 46.4779 26.9589 46.51 27.1377 46.4847C27.3282 46.4476 27.4665 46.3203 27.5415 46.112L27.6882 45.7748C27.738 45.6432 27.7312 45.532 27.6899 45.4417C27.6494 45.3406 27.5424 45.236 27.3678 45.1399C27.5221 45.1686 27.6672 45.1745 27.7692 45.123C27.8484 45.0817 27.9302 44.9966 27.9918 44.833L28.1148 44.5379C28.1899 44.3305 28.1747 44.1408 28.0803 43.9924C27.9859 43.8668 27.7472 43.7125 27.4184 43.5776L26.3131 43.1333C25.9632 42.9866 25.6648 42.9402 25.4624 42.9992C25.282 43.0583 25.1083 43.2404 25.0088 43.5026C25.0088 43.5026 24.9962 43.5464 24.9835 43.5683C24.9717 43.5903 24.9599 43.6231 24.9355 43.6661L25.7019 43.9747L25.7145 43.9418C25.7516 43.8432 25.8098 43.7791 25.8781 43.7488C25.9236 43.7167 26.0121 43.7319 26.1327 43.7698L26.975 44.1256C27.0964 44.1636 27.2043 44.2344 27.2245 44.2799C27.2557 44.3364 27.2641 44.4148 27.227 44.4907C27.2018 44.5565 27.1554 44.6104 27.0989 44.6298C27.0542 44.6391 26.9986 44.6374 26.9328 44.6121L26.0897 44.2791L25.8435 44.8794L26.6529 45.2006C26.7625 45.2487 26.8485 45.3195 26.8797 45.376C26.8999 45.4215 26.8974 45.4991 26.8713 45.5868C26.835 45.6517 26.7777 45.7048 26.722 45.7141C26.6891 45.7124 26.6217 45.7099 26.523 45.6837L25.5712 45.3009C25.4076 45.2284 25.3098 45.1576 25.2795 45.1011C25.2483 45.0666 25.2516 44.9561 25.2896 44.8465C25.3123 44.8355 25.314 44.8027 25.325 44.7925C25.314 44.7807 25.3477 44.7715 25.3477 44.7715L24.594 44.4511ZM25.9826 0.939665C39.2701 1.46577 49.6741 12.6935 49.1598 25.9532C48.6455 39.2128 37.4043 49.5856 24.1176 49.0595C10.831 48.5343 0.426146 37.3057 0.939602 24.046C1.4539 10.7864 12.696 0.414405 25.9826 0.939665ZM25.9489 2.10316C13.3165 1.6032 2.61656 11.4761 2.12839 24.0823C1.63939 36.6885 11.5426 47.3758 24.1741 47.875C36.8065 48.3749 47.5065 38.5021 47.9946 25.8967C48.4828 13.2904 38.5804 2.60229 25.9489 2.10316Z" fill="#008639"/>
</svg>
