<svg width="44" height="50" viewBox="0 0 44 50" fill="none" xmlns="http://www.w3.org/2000/svg">
<path fill-rule="evenodd" clip-rule="evenodd" d="M19.929 2.40923C15.1203 7.62656 9.56183 10.7145 3.40793 11.5873L0.968277 11.9331L0.795132 14.3909C0.51315 18.3902 1.02404 22.6428 2.27262 26.6894L2.29294 26.7583C5.30114 36.5026 12.0437 44.7035 20.7908 49.2567L22.222 50L23.6505 49.2583C32.4013 44.7029 39.144 36.5021 42.1519 26.7562L42.1779 26.6716L42.1804 26.6533C43.3587 22.6611 43.8311 18.4207 43.5461 14.3904L43.3723 11.9331L40.9333 11.5873C34.7992 10.7172 29.3887 7.70811 24.3928 2.38833L22.1497 0L19.929 2.40923Z" fill="black"/>
<path fill-rule="evenodd" clip-rule="evenodd" d="M20.7913 3.20395C15.7944 8.62509 10.0012 11.8362 3.5725 12.7481L2.07128 12.9609L1.96454 14.4735C1.69282 18.3297 2.18661 22.4341 3.39291 26.3433L3.41303 26.4116C6.32973 35.8596 12.8612 43.8072 21.3322 48.2164L22.222 48.6789L23.1103 48.2175C31.5838 43.8072 38.1155 35.859 41.0315 26.4106L41.0555 26.3323L41.0558 26.3214C42.195 22.4622 42.6517 18.365 42.3766 14.473L42.2697 12.9609L40.7687 12.7481C34.3603 11.8391 28.724 8.71294 23.538 3.19101L22.1578 1.72124L20.7913 3.20395Z" fill="white"/>
<path fill-rule="evenodd" clip-rule="evenodd" d="M39.1897 25.7905H5.18451L5.20511 25.8573C7.97528 34.8302 14.1691 42.3733 22.1982 46.5528L22.222 46.5648L22.2459 46.5528C30.276 42.3729 36.4699 34.8297 39.239 25.8573L39.2596 25.7905H39.1897Z" fill="black"/>
<path fill-rule="evenodd" clip-rule="evenodd" d="M39.2401 25.8489C40.3542 22.101 40.7595 18.201 40.5053 14.6053C33.7193 13.6428 27.641 10.3 22.1706 4.47524C16.8018 10.3 10.6225 13.6428 3.83597 14.6053C3.5824 18.201 4.03846 22.101 5.20291 25.8489H39.2401Z" fill="#FF1100"/>
<path fill-rule="evenodd" clip-rule="evenodd" d="M8.9032 15.8714L12.8032 13.8456C12.7523 15.0607 12.9042 16.5296 13.4614 17.6947L17.2603 25.9001V30.5098L11.5872 18.708C11.0302 17.5937 9.86497 16.7831 8.9032 15.8714Z" fill="white"/>
<path fill-rule="evenodd" clip-rule="evenodd" d="M35.8484 16.2258L31.948 14.2C31.9988 15.4153 31.7968 16.884 31.2897 18.0491L25.2112 31.775L27.5925 31.4206L33.1639 19.0624C33.6707 17.9482 34.8866 17.1376 35.8484 16.2258Z" fill="white"/>
<path fill-rule="evenodd" clip-rule="evenodd" d="M16.9058 39.1188H20.4004V27.0651H24.047C24.8074 27.0651 25.2621 28.0267 25.8201 28.5341L25.8707 23.5697C25.2621 24.0258 24.857 24.8867 24.0979 24.8867H20.4513L20.4004 19.9741L18.0702 20.6831V37.1441C18.0702 37.9041 17.3105 38.4606 16.9058 39.1188Z" fill="white"/>
<path fill-rule="evenodd" clip-rule="evenodd" d="M18.121 16.9857V13.6428C18.121 12.8831 17.4122 12.326 16.956 11.718H27.7958V15.0607C26.9343 14.5037 26.2254 13.4912 25.2621 13.4912H20.4513V16.5296L18.121 16.9857Z" fill="white"/>
<path fill-rule="evenodd" clip-rule="evenodd" d="M25.5164 39.1694H29.1121V35.8267C28.9596 35.9791 28.8591 37.3461 26.2254 37.3461L25.5164 39.1694Z" fill="white"/>
<path fill-rule="evenodd" clip-rule="evenodd" d="M21.2105 36.0302V39.3219L22.9325 42.7157L26.2761 35.1685L24.1988 35.2196L22.6799 39.0692L21.2105 36.0302Z" fill="white"/>
<path fill-rule="evenodd" clip-rule="evenodd" d="M17.2603 31.4206C14.4746 30.2044 11.8916 28.1791 10.0677 25.8489C10.6248 24.6839 11.739 23.5196 12.7015 22.9624L11.5872 20.9366C10.2202 21.9492 8.75078 23.0634 8.09258 24.583C7.83911 25.1401 7.38359 25.5457 6.92749 25.8489C7.38359 26.1026 7.68726 26.0515 8.14331 26.7107C10.3721 29.9011 13.765 32.3837 17.2603 33.6489C17.2603 32.7877 17.2603 32.2818 17.2603 31.4206Z" fill="white"/>
<path fill-rule="evenodd" clip-rule="evenodd" d="M14.7783 18.8598L15.7915 20.8349C20.4513 18.7581 25.0095 18.708 29.2138 20.2777L30.0244 18.5053C25.4658 16.5296 19.8942 16.6814 14.7783 18.8598Z" fill="white"/>
<path fill-rule="evenodd" clip-rule="evenodd" d="M33.4168 20.2268L32.6581 22L34.0761 22.709C34.4814 22.8607 34.6325 23.418 34.8867 23.7724L36.1523 20.9867C35.696 20.9867 35.1905 21.1894 34.7852 20.9867L33.4168 20.2268Z" fill="white"/>
<path fill-rule="evenodd" clip-rule="evenodd" d="M21.1603 32.1801V34.1052C26.2761 35.2196 31.0877 33.6996 35.5449 31.0662L34.2272 29.0904C31.0877 31.775 25.7184 33.0925 21.1603 32.1801Z" fill="white"/>
</svg>
